<?xml version="1.0" encoding="utf-8"?>
<!-- Generator: Adobe Illustrator 19.2.1, SVG Export Plug-In . SVG Version: 6.00 Build 0)  -->
<svg version="1.1" id="layer" xmlns="http://www.w3.org/2000/svg" xmlns:xlink="http://www.w3.org/1999/xlink" x="0px" y="0px"
	 viewBox="0 0 652 652" style="enable-background:new 0 0 652 652;" xml:space="preserve">
<style type="text/css">
	.st0{fill:#275D38;}
</style>
<path class="st0" d="M232.9,259.4v32.9c0.1,3.4-0.7,6.7-2.4,9.6c-1.6,2.7-4,4.9-6.8,6.3c-3.3,1.5-6.9,2.2-10.5,2.1
	c-5.3,0.3-10.5-1.4-14.6-4.8c-3.5-3.4-5.5-8.1-5.3-12.9v-33.2h12.2v33.3c0.1,5.6,2.7,8.3,7.7,8.3c2.1,0.1,4.2-0.6,5.7-2.1
	c1.5-1.9,2.2-4.3,1.9-6.7v-32.9H232.9z M287.3,309.7h-12.1l-17.8-31.3v31.3h-12.1v-50.3h12.1l17.8,31.3v-31.3h12.1L287.3,309.7z
	 M312.2,309.7h-12v-50.3h12.1L312.2,309.7z M342.9,296l10-36.6h13.5l-16.9,50.3h-13.3l-16.8-50.3h13.4L342.9,296z M405,288.3h-19.1
	v12h22.6v9.3h-34.7v-50.3h34.7v9.4h-22.6v10.6H405L405,288.3z M437.9,291.9h-6.5v17.8h-12.1v-50.3h19.8c5-0.3,9.9,1.1,14,4
	c3.4,2.7,5.3,6.9,5,11.2c0.1,3-0.6,6-2.1,8.7c-1.6,2.5-3.9,4.4-6.6,5.6l10.4,20.3v0.5h-13L437.9,291.9z M431.4,282.5h7.7
	c1.9,0.1,3.8-0.5,5.2-1.8c1.2-1.4,1.8-3.2,1.7-5.1c0.1-1.9-0.5-3.7-1.8-5.1c-1.4-1.3-3.3-2-5.2-1.8h-7.6V282.5z M493.7,296.3
	c0.1-1.6-0.6-3.2-1.9-4.2c-2-1.4-4.3-2.4-6.6-3.1c-2.6-0.9-5.2-1.9-7.7-3.1c-6.4-3.2-9.8-7.6-9.8-13.2c0-2.7,0.8-5.3,2.4-7.4
	c1.8-2.3,4.2-4,6.9-5c3.2-1.2,6.6-1.8,10-1.8c3.3-0.1,6.7,0.6,9.7,1.9c2.7,1.2,5,3.1,6.7,5.5c1.6,2.4,2.4,5.3,2.4,8.2h-12.1
	c0.1-1.8-0.6-3.5-1.9-4.8c-1.4-1.2-3.2-1.8-5.1-1.7c-1.8-0.1-3.6,0.4-5.1,1.4c-1.2,0.8-1.9,2.2-1.9,3.6c0.1,1.4,0.9,2.7,2.1,3.5
	c2.3,1.4,4.7,2.5,7.3,3.3c3,0.9,5.8,2.1,8.6,3.6c5.4,3.1,8.2,7.5,8.1,13c0.2,4.1-1.7,8-5,10.4c-4,2.7-8.8,4.1-13.6,3.8
	c-3.8,0.1-7.6-0.6-11.1-2.1c-3-1.2-5.6-3.3-7.5-6c-1.7-2.6-2.6-5.7-2.5-8.8h12.1c-0.2,2.2,0.6,4.4,2.1,6c1.9,1.5,4.4,2.1,6.8,1.9
	c1.7,0.1,3.4-0.4,4.8-1.3C493.1,299.2,493.8,297.8,493.7,296.3z M527.7,309.7h-12.1v-50.3h12.1V309.7z M607.9,259.4l-11.1,21.8
	l-11.2-21.8H535v9.4h14.8v40.9h12.1v-40.9h15.9l12.8,22.9v18.1h12.3v-18.1l18.1-32.2H607.9z M235.6,355.8c0.1,4.5-0.8,9-2.7,13
	c-1.7,3.6-4.4,6.6-7.8,8.7c-3.5,2.1-7.4,3.1-11.4,3.1c-4,0.1-7.9-0.9-11.4-3c-3.3-2-6-4.9-7.8-8.3c-1.9-3.9-2.9-8.2-2.9-12.6v-2.9
	c-0.1-4.5,0.8-9,2.7-13c1.7-3.6,4.4-6.7,7.8-8.7c7.1-4.1,15.8-4.1,22.9,0c3.4,2.1,6.1,5.1,7.8,8.7c1.9,4,2.9,8.4,2.8,12.8V355.8z
	 M223.3,353.7c0.2-4-0.6-7.9-2.5-11.4c-1.5-2.5-4.2-4-7.2-3.9c-6.1,0-9.3,4.6-9.6,13.7v3.7c-0.2,3.9,0.6,7.9,2.5,11.4
	c2.5,4,7.8,5.1,11.8,2.6c1.1-0.7,1.9-1.6,2.6-2.6c1.8-3.4,2.6-7.3,2.3-11.2L223.3,353.7z M277.7,359.8h-19.5v20H246v-50.3h33.6v9.4
	h-21.5v11.6h19.5V359.8z M476.8,358.5h-19.1v12h22.5v9.3h-34.6v-50.3h34.7v9.4h-22.6v10.6h19.1V358.5z M509.9,362.1h-6.6v17.8h-12.1
	v-50.3H511c5-0.3,9.9,1.1,14,4c3.4,2.7,5.3,6.9,5,11.2c0.1,3-0.6,6.1-2.1,8.7c-1.6,2.5-3.9,4.4-6.6,5.6l10.4,20.3v0.5h-13
	L509.9,362.1z M503.4,352.8h7.7c1.9,0.1,3.8-0.5,5.2-1.8c1.2-1.4,1.9-3.2,1.8-5.1c0.1-1.9-0.5-3.7-1.8-5.1c-1.4-1.3-3.3-2-5.2-1.9
	h-7.7V352.8z M334.9,370.5h-16.7l-2.9,9.4h-13.9l19.4-50.3h11.4l18.6,50.3h-13L334.9,370.5z M321.1,361.1H332l-5.4-17.5L321.1,361.1
	z M369.4,370.5h21.1v9.3h-33.3v-50.3h12.1L369.4,370.5z M398.3,379.9v-50.3h18.1c6.5,0,11.4,1.2,14.8,3.5c5.2,4,6.6,11.3,3.3,17
	c-1.3,1.9-3.1,3.4-5.3,4.2c2.4,0.5,4.6,1.9,6.1,3.9c1.4,2,2.2,4.4,2.1,6.9c0.3,4.2-1.4,8.4-4.7,11.1c-3.1,2.5-7.8,3.8-13.9,3.8
	L398.3,379.9z M410.4,350.5h6.3c2,0.2,4-0.3,5.7-1.5c1.2-1.1,1.8-2.6,1.7-4.2c0.2-1.7-0.5-3.4-1.8-4.6c-1.8-1.1-3.8-1.6-5.9-1.4
	h-5.9V350.5z M410.4,358.5v12.1h8c1.8,0.1,3.6-0.4,5-1.5c1.2-1.1,1.8-2.6,1.8-4.2c0.4-3.1-1.8-5.9-4.8-6.3c-0.5-0.1-1-0.1-1.4,0
	L410.4,358.5z M577,338.9h-15.1v40.9h-12.1v-40.9H535v-9.4h42V338.9z M605,370.5h-16.7l-2.8,9.4h-13l18.5-50.3h11.4l18.5,50.3h-13
	L605,370.5z M591.3,361.1h10.9l-5.5-17.5L591.3,361.1z"/>
<path class="st0" d="M106.9,258.8l-1.4-0.5c-3.3-1.3-6.9-1.9-10.4-1.9c-3.3,0-6.5,0.5-9.6,1.6c-3.1-1.1-6.4-1.6-9.7-1.6
	c-3.6,0-7.1,0.6-10.4,1.9l-1.4,0.5v3h-3.4v23.3h49.6v-23.3h-3.4V258.8z M83.3,279.6c-4.9-1.2-10.1-1.2-15,0v-17.9
	c4.9-1.4,10.1-1.4,15,0V279.6z M102.6,279.6c-4.9-1.2-10.1-1.2-15,0v-17.9c4.9-1.4,10.1-1.4,15,0V279.6z"/>
<path class="st0" d="M143.9,251.9l-1.8-0.9c-16.3-7.9-34.3-11.6-56.7-11.6s-40.5,3.7-56.8,11.6l-1.8,0.9l-5.9,2.9V322
	c0,11.2,2.4,39.4,24.5,58.6C56,389.7,68,396.8,81,401.7c0,0,4.1,1.5,4.4,1.5s4.3-1.5,4.3-1.5c13-4.9,25-12.1,35.4-21.1
	c22.3-19.1,24.6-47.4,24.6-58.6v-67.2L143.9,251.9z M67.4,379.6l-2.5,2.5c-2.1-1.3-4.2-2.7-6.3-4.3l6.5-6.5l2.3,2.3L67.4,379.6z
	 M67.4,362.9l-3.8,3.8l-5.3,5.2l-5.3-5.3l-3.8-3.8v-6l2.3-2.3l6.8,6.8l6.8-6.8l2.3,2.3V362.9z M67.4,346.3l-9.1,9l-9.1-9.1v-6
	l2.3-2.3l6.8,6.8l6.8-6.8l2.3,2.3V346.3z M94.5,379.7l-3.8,3.8l-5.3,5.3l-5.3-5.3l-3.8-3.8v-6.1l2.3-2.3l6.8,6.8l6.8-6.8l2.3,2.3
	V379.7z M94.5,363l-3.8,3.8l-5.3,5.3l-5.3-5.3l-3.8-3.8v-6.2l2.3-2.3l6.8,6.8l6.8-6.8l2.3,2.3V363z M94.5,346.4l-9.1,9.1l-9.1-9.1
	v-6.2l2.3-2.3l6.8,6.8l6.8-6.8l2.3,2.3V346.4z M103.4,379.8v-6.2l2.3-2.3l6.5,6.5c-2.1,1.6-4.2,3-6.3,4.3L103.4,379.8z M121.6,363.1
	l-3.8,3.8l-5.3,5.3l-5.3-5.3l-3.8-3.8v-6.3l2.3-2.3l6.8,6.8l6.8-6.8l2.3,2.3L121.6,363.1z M121.6,346.5l-9.1,9.1l-9.1-9.1v-6.3
	l2.3-2.3l6.8,6.8l6.8-6.8l2.3,2.3V346.5z M138.8,332.2c-3.1-0.5-6-1.5-8.7-3.2c-4.5-2.6-10-2.6-14.5,0c-7.1,4-15.8,4-22.9,0
	c-4.5-2.5-10-2.5-14.4,0c-7.1,4-15.8,4-22.9,0c-4.5-2.6-10-2.6-14.5,0c-2.7,1.5-5.7,2.5-8.8,2.8c-0.4-2.9-0.6-5.8-0.7-8.7
	c1.8-0.3,3.5-0.9,5.1-1.8c7.1-4,15.8-4,22.9,0c4.5,2.6,10,2.6,14.5,0c7.1-4,15.8-4,22.9,0c4.5,2.6,10,2.6,14.5,0
	c7.1-4,15.8-4,22.9,0c1.6,0.9,3.3,1.5,5.1,1.8c0,2.9-0.2,5.8-0.5,8.7L138.8,332.2z M139.4,314.8l-16.3-16.7l-15.3,15.5l-22.4-22.9
	L63,313.4l-15.3-15.5l-16.3,16.5v-53.1l1.8-0.9c14.9-7.2,31.6-10.6,52.2-10.6s37.4,3.4,52.3,10.6l1.8,0.9L139.4,314.8z"/>
</svg>
