<svg width="40" height="40" viewBox="0 0 40 40" fill="none" xmlns="http://www.w3.org/2000/svg">
<rect width="40" height="40" fill="white"/>
<rect width="40" height="40" fill="#0A65C1"/>
<path d="M10.4629 12.6893C10.4629 12.0777 10.6777 11.573 11.1073 11.1755C11.5369 10.7779 12.0954 10.5791 12.7828 10.5791C13.4579 10.5791 14.0041 10.7748 14.4214 11.1663C14.851 11.57 15.0658 12.096 15.0658 12.7444C15.0658 13.3316 14.8572 13.8209 14.4398 14.2124C14.0102 14.6161 13.4456 14.8179 12.746 14.8179H12.7275C12.0524 14.8179 11.5062 14.6161 11.0889 14.2124C10.6716 13.8087 10.4629 13.301 10.4629 12.6893ZM10.7022 28.7454V16.4877H14.7897V28.7454H10.7022ZM17.0543 28.7454H21.1417V21.9009C21.1417 21.4728 21.1908 21.1425 21.289 20.91C21.4609 20.4941 21.7217 20.1424 22.0715 19.8549C22.4214 19.5674 22.8602 19.4237 23.388 19.4237C24.7627 19.4237 25.4501 20.3473 25.4501 22.1945V28.7454H29.5375V21.7174C29.5375 19.9069 29.1079 18.5337 28.2487 17.5979C27.3895 16.6621 26.2541 16.1941 24.8425 16.1941C23.2591 16.1941 22.0255 16.8731 21.1417 18.231V18.2677H21.1233L21.1417 18.231V16.4877H17.0543C17.0789 16.8792 17.0911 18.0964 17.0911 20.1394C17.0911 22.1823 17.0789 25.051 17.0543 28.7454Z" fill="white"/>
</svg>
